<svg xmlns="http://www.w3.org/2000/svg" viewBox="0 0 135.67 140.29"><title>資產 2</title><g id="圖層_2" data-name="圖層 2"><g id="圖層_1-2" data-name="圖層 1"><path d="M116.93,76c8.4,10.2,9.5,19.7,9.3,28.5S112,130.1,66,129.4s-56.3-11.9-56-27.5c.3-19.3-6.3-24.5.6-31.8,13.1-13.8,97.9-4.3,106.3,5.9" fill="#82d357" fill-rule="evenodd"/><path d="M135.63,68.3a46.85,46.85,0,0,0-7.4-23.4c-.6-12.6-4.3-31.6-8-34.6-4-3.1-13.5,4.5-20.4,11.2a78.68,78.68,0,0,0-34-6.1,81.35,81.35,0,0,0-24.5,4.7C36,11.5,27.83.3,20.93,0,12-.3-4.07,36.7,2.13,57.9h0A47.24,47.24,0,0,0,0,73.4c1.2,30.6,32.5,54.3,69.9,52.9S136.83,98.9,135.63,68.3Z" fill="#373737" fill-rule="evenodd"/><path d="M94,52.2a5.34,5.34,0,1,1-2.3,7.2A5.26,5.26,0,0,1,94,52.2" fill="#fcfcfc" fill-rule="evenodd"/><path d="M42.33,51.6A5.34,5.34,0,1,1,40,58.8a5.37,5.37,0,0,1,2.3-7.2" fill="#fcfcfc" fill-rule="evenodd"/><path d="M57.73,66c-1.7-1.6,6.6-8.9,6.6-8.9s-8.8-7.8-6.5-9S69.73,52,69.73,52s11.1-6.3,13.1-4.2-7.3,8.5-7.3,8.5,8.8,7.7,7.3,9.1-12.2-4.8-12.2-4.8S60,68.2,57.73,66" fill="#fcfcfc" fill-rule="evenodd"/><path d="M126.43,133.5c4.6-3.5,7.1-9.5-3.7-18.5-6.2-5.1-23.1-1.7-24.8,16.6-.3,2.8,2.9,4.8,6.3,4.5a9,9,0,0,0,3.3-1.2c-.4.4,1.7,2,4.1,2.6s5.6-2,5.5-2.9C117.23,134.7,121.33,137.4,126.43,133.5Z" fill="#373737" fill-rule="evenodd"/><path d="M44.24,137.82c5-3,8.29-8.58-1.37-18.78-5.61-5.85-22.68-4.64-26.63,13.34-.6,2.78,2.2,5.12,5.69,5.32a10.43,10.43,0,0,0,3.45-.76c-.47.42,1.38,2.2,3.74,3.13S35,138.76,35,137.82C34.91,137.9,38.64,141,44.24,137.82Z" fill="#373737" fill-rule="evenodd"/></g></g></svg>