<svg width="32" height="32" viewBox="0 0 32 32" fill="none" xmlns="http://www.w3.org/2000/svg">
<path d="M29.3333 16C29.3333 16.7364 28.7364 17.3333 28 17.3333H6.89332L13.0133 24.4667C13.492 25.0263 13.4263 25.868 12.8667 26.3467C12.307 26.8253 11.4653 26.7597 10.9867 26.2L2.98666 16.8667C2.93889 16.8002 2.89865 16.7287 2.86666 16.6533C2.82653 16.6032 2.79084 16.5497 2.75999 16.4933C2.70222 16.3351 2.67069 16.1684 2.66666 16C2.67069 15.8316 2.70222 15.6649 2.75999 15.5067C2.79084 15.4503 2.82653 15.3968 2.86666 15.3467C2.89865 15.2713 2.93889 15.1998 2.98666 15.1333L10.9867 5.80001C11.4653 5.24036 12.307 5.1747 12.8667 5.65334C13.4263 6.13199 13.492 6.9737 13.0133 7.53334L6.89332 14.6667H28C28.7364 14.6667 29.3333 15.2636 29.3333 16Z" fill="#383838"/>
</svg>
