<?xml version="1.0" encoding="UTF-8" standalone="no"?>
<!DOCTYPE svg PUBLIC "-//W3C//DTD SVG 1.1//EN" "http://www.w3.org/Graphics/SVG/1.1/DTD/svg11.dtd">
<svg width="100%" height="100%" viewBox="0 0 1627 2226" version="1.1" xmlns="http://www.w3.org/2000/svg" xmlns:xlink="http://www.w3.org/1999/xlink" xml:space="preserve" xmlns:serif="http://www.serif.com/" style="fill-rule:evenodd;clip-rule:evenodd;stroke-linejoin:round;stroke-miterlimit:2;">
    <g id="Artboard4" transform="matrix(1.00681,0,0,0.980616,2613.14,35.2521)">
        <rect x="-2595.47" y="-35.949" width="1615.45" height="2269.92" style="fill:none;"/>
        <clipPath id="_clip1">
            <rect x="-2595.47" y="-35.949" width="1615.45" height="2269.92"/>
        </clipPath>
        <g clip-path="url(#_clip1)">
            <g transform="matrix(-1.93255,4.42463,4.30952,1.98417,-13534.6,-33351.9)">
                <g id="cat">
                    <g transform="matrix(2.66667,0,0,2.66667,5571.63,5124.41)">
                        <clipPath id="_clip2">
                            <rect x="-96.74" y="-0" width="49.818" height="107.393"/>
                        </clipPath>
                        <g clip-path="url(#_clip2)">
                            <path d="M0,107.393C10.466,107.393 18.951,98.909 18.951,88.442L18.951,66.328C18.951,29.755 -10.804,0 -47.377,0L-77.789,0C-88.255,0 -96.74,8.485 -96.74,18.951C-96.74,29.417 -88.255,37.902 -77.789,37.902L-47.377,37.902C-31.703,37.902 -18.951,50.654 -18.951,66.328L-18.951,88.442C-18.951,98.909 -10.466,107.393 0,107.393" style="fill:rgb(56,56,56);fill-rule:nonzero;"/>
                            <clipPath id="_clip3">
                                <path d="M0,107.393C10.466,107.393 18.951,98.909 18.951,88.442L18.951,66.328C18.951,29.755 -10.804,0 -47.377,0L-77.789,0C-88.255,0 -96.74,8.485 -96.74,18.951C-96.74,29.417 -88.255,37.902 -77.789,37.902L-47.377,37.902C-31.703,37.902 -18.951,50.654 -18.951,66.328L-18.951,88.442C-18.951,98.909 -10.466,107.393 0,107.393" clip-rule="nonzero"/>
                            </clipPath>
                            <g clip-path="url(#_clip3)">
                                <g transform="matrix(0.321807,0,0,0.375,-3427.44,-1678.49)">
                                    <path d="M10585.3,4475.97C10586.8,4477.58 10585.3,4507.98 10570.4,4522.05C10563.5,4528.59 10565.5,4540.98 10569.8,4547.2C10584.3,4568.4 10633.8,4536.51 10638.2,4506.89C10623.8,4493.91 10606.4,4483.18 10585.3,4475.97Z" style="fill:rgb(255,169,73);"/>
                                </g>
                                <g transform="matrix(0.303803,0.106128,-0.123671,0.354021,-2660.27,-2693.33)">
                                    <path d="M10585.3,4475.97C10586.8,4477.58 10585.3,4507.98 10570.4,4522.05C10563.5,4528.59 10565.5,4540.98 10569.8,4547.2C10584.3,4568.4 10633.8,4536.51 10638.2,4506.89C10623.8,4493.91 10606.4,4483.18 10585.3,4475.97Z" style="fill:rgb(255,169,73);"/>
                                </g>
                                <g transform="matrix(0.283167,0.152893,-0.178165,0.329973,-2181.86,-3060.25)">
                                    <path d="M10585.3,4475.97C10586.8,4477.58 10585.3,4507.98 10570.4,4522.05C10563.5,4528.59 10565.5,4540.98 10569.8,4547.2C10584.3,4568.4 10633.8,4536.51 10638.2,4506.89C10623.8,4493.91 10606.4,4483.18 10585.3,4475.97Z" style="fill:rgb(255,169,73);"/>
                                </g>
                            </g>
                        </g>
                    </g>
                    <g>
                        <g transform="matrix(2.66667,0,0,2.66667,5368.74,5179.9)">
                            <path d="M0,-13.172C-5.831,-9.892 -16.035,-6.039 -28.113,-6.039C-40.192,-6.039 -48.531,-5.571 -50.687,-5.571C-52.843,-5.571 -59.091,-4.425 -59.091,-1.458C-59.091,2.486 -54.535,3.28 -46.856,3.28L0.937,3.28C7.653,3.28 11.194,-0.937 10.412,-6.977C10.014,-10.058 5.831,-16.452 0,-13.172" style="fill:rgb(56,56,56);"/>
                        </g>
                        <g transform="matrix(1.66533e-16,-2.66667,2.66667,1.66533e-16,5519.95,5094.34)">
                            <path d="M0,37.162C4.829,37.162 9.414,35.07 12.577,31.422L17.481,25.768C19.024,23.989 18.833,21.296 17.054,19.753C15.275,18.209 12.582,18.401 11.039,20.18L6.135,25.835C4.592,27.614 2.356,28.634 0,28.634C-3.005,28.634 -5.83,27.464 -7.954,25.34C-10.079,23.215 -11.249,20.39 -11.249,17.385L-11.249,4.264C-11.249,1.909 -13.158,0 -15.513,0C-17.868,0 -19.777,1.909 -19.777,4.264L-19.777,17.385C-19.777,22.668 -17.72,27.634 -13.984,31.37C-10.249,35.105 -5.283,37.162 0,37.162" style="fill:rgb(56,56,56);fill-rule:nonzero;"/>
                        </g>
                        <g transform="matrix(1.66533e-16,-2.66667,2.66667,1.66533e-16,5700.4,5225.5)">
                            <path d="M0,-58.362C0,-58.362 -0.052,-21.285 0,-8.799C0.014,-5.476 -0.156,0 4.686,0C9.527,0 10.517,-4.529 10.517,-10.412L10.517,-43.784L0,-58.362Z" style="fill:rgb(56,56,56);"/>
                        </g>
                        <g transform="matrix(1.66533e-16,-2.66667,2.66667,1.66533e-16,5680.82,5200.92)">
                            <path d="M0,-58.362C0,-58.362 -0.052,-21.285 0,-8.799C0.014,-5.476 -0.156,0 4.686,0C9.527,0 10.516,-4.53 10.516,-10.413L10.516,-43.785L0,-58.362Z" style="fill:rgb(56,56,56);"/>
                        </g>
                        <g transform="matrix(1.66533e-16,-2.66667,2.66667,1.66533e-16,5672.32,5170.67)">
                            <clipPath id="_clip4">
                                <path d="M-11.347,-5.609C-11.333,-2.286 -11.503,3.189 -6.661,3.189C-1.819,3.189 -0.83,-1.339 -0.83,-7.223L-0.83,-40.595L-11.347,-55.172C-11.347,-55.172 -11.399,-18.095 -11.347,-5.609Z" clip-rule="nonzero"/>
                            </clipPath>
                            <g clip-path="url(#_clip4)">
                                <path d="M0,-19.405C-3.696,-17.557 -9.525,-17.45 -9.525,-17.45L-9.49,3.91L-14.323,-0.319L-12.119,-22.319L-1.386,-23.315C-1.386,-23.315 3.732,-21.271 0,-19.405" style="fill:rgb(40,40,40);"/>
                            </g>
                        </g>
                        <g transform="matrix(1.66533e-16,-2.66667,2.66667,1.66533e-16,5622.58,5124.92)">
                            <path d="M0,-26.485C0,-14.379 -6.258,0 -28.452,0C-39.19,0 -37.644,-26.485 -37.644,-26.485L0,-26.485" style="fill:rgb(56,56,56);"/>
                        </g>
                        <g transform="matrix(2.66667,0,0,2.66667,5323.89,5196.69)">
                            <path d="M0,-26.381C2.499,-28.536 5.831,-28.301 8.018,-28.301C10.204,-28.301 15.827,-25.569 15.827,-14.01C15.827,-2.453 9.762,2.155 5.909,2.155C1.119,2.155 0.786,2.048 -1.041,0.358C-4.538,-2.875 -2.499,-24.226 0,-26.381" style="fill:rgb(130,211,87);"/>
                        </g>
                        <g transform="matrix(1,0,0,1,-2195.83,976.14)">
                            <path d="M7525.42,4221.97C7520.78,4225.94 7515.45,4229.41 7509.51,4232.19C7480.4,4245.78 7447.74,4237.49 7436.61,4213.67C7433.53,4207.07 7432.43,4199.98 7433.05,4192.87C7428.59,4183.01 7423.89,4167.06 7425.61,4163.34C7427.42,4159.42 7437.66,4161.46 7445.6,4163.89C7451.64,4156.63 7459.63,4150.35 7469.2,4145.88C7475.96,4142.73 7482.91,4140.75 7489.74,4139.87C7490.43,4131.22 7492.24,4119.45 7497.39,4116.55C7503.56,4113.08 7526.98,4131.62 7533.26,4149.19C7533.33,4149.19 7533.4,4149.19 7533.47,4149.19C7540.86,4149.28 7550.4,4159.25 7550.82,4186.23C7551.24,4212.86 7543.97,4221.14 7531.66,4222.16C7529.35,4222.35 7527.27,4222.27 7525.42,4221.97Z" style="fill:rgb(56,56,56);"/>
                        </g>
                        <g transform="matrix(-2.66667,0,0,2.66667,5266.31,5170.3)">
                            <path d="M0,-3.425C0.945,-3.425 1.713,-2.657 1.713,-1.712C1.713,-0.767 0.945,0 0,0C-0.946,0 -1.713,-0.767 -1.713,-1.712C-1.713,-2.657 -0.946,-3.425 0,-3.425" style="fill:rgb(244,238,225);"/>
                        </g>
                        <g transform="matrix(-2.66667,0,0,2.66667,5305.48,5149.54)">
                            <path d="M0,-3.425C0.945,-3.425 1.713,-2.657 1.713,-1.712C1.713,-0.767 0.945,0 0,0C-0.945,0 -1.713,-0.767 -1.713,-1.712C-1.713,-2.657 -0.945,-3.425 0,-3.425" style="fill:rgb(244,238,225);"/>
                        </g>
                        <g transform="matrix(2.66667,0,0,2.66667,5299.38,5153.7)">
                            <path d="M0,1.412C0.238,0.698 -3.205,-0.156 -3.205,-0.156C-3.205,-0.156 -1.839,-3.679 -2.665,-3.679C-3.492,-3.679 -5.494,-0.828 -5.494,-0.828C-5.494,-0.828 -9.596,-1.014 -9.862,-0.107C-10.129,0.799 -6.504,1.252 -6.504,1.252C-6.504,1.252 -7.89,4.771 -7.251,4.931C-6.61,5.091 -4.478,1.759 -4.478,1.759C-4.478,1.759 -0.32,2.372 0,1.412" style="fill:rgb(244,238,225);"/>
                        </g>
                        <g transform="matrix(2.66667,0,0,2.66667,5373.82,5216.98)">
                            <path d="M0,-13.172C-5.831,-9.892 -16.035,-6.039 -28.113,-6.039C-40.192,-6.039 -48.531,-5.571 -50.687,-5.571C-52.843,-5.571 -59.091,-4.425 -59.091,-1.458C-59.091,2.486 -54.535,3.28 -46.856,3.28L0.937,3.28C7.653,3.28 11.194,-0.937 10.412,-6.977C10.014,-10.058 5.831,-16.452 0,-13.172" style="fill:rgb(56,56,56);"/>
                        </g>
                        <g transform="matrix(2.66667,0,0,2.66667,5365.18,5188.98)">
                            <clipPath id="_clip5">
                                <path d="M3.239,-2.672C-2.591,0.608 -12.796,4.46 -24.874,4.46C-36.952,4.46 -45.292,4.929 -47.447,4.929C-49.604,4.929 -55.851,6.075 -55.851,9.042C-55.851,12.986 -51.297,13.78 -43.616,13.78L4.177,13.78C10.893,13.78 14.433,9.563 13.653,3.523C13.331,1.043 10.558,-3.584 6.447,-3.584C5.451,-3.584 4.376,-3.312 3.239,-2.672Z" clip-rule="nonzero"/>
                            </clipPath>
                            <g clip-path="url(#_clip5)">
                                <path d="M0,-0.926C-4.272,6.133 -31.863,6.609 -39.934,6.304C-44.229,6.142 -48.212,3.831 -48.212,3.831C-48.212,3.831 4,-7.535 0,-0.926" style="fill:rgb(40,40,40);"/>
                            </g>
                        </g>
                    </g>
                    <g transform="matrix(-2.02392e-15,-2.66667,4.8719,-8.98863e-16,5095.38,5174.95)">
                        <clipPath id="_clip6">
                            <rect x="-96.74" y="69.601" width="115.691" height="37.792"/>
                        </clipPath>
                        <g clip-path="url(#_clip6)">
                            <path d="M0,107.393C10.466,107.393 18.951,98.909 18.951,88.442L18.951,66.328C18.951,29.755 -10.804,0 -47.377,0L-77.789,0C-88.255,0 -96.74,8.485 -96.74,18.951C-96.74,29.417 -88.255,37.902 -77.789,37.902L-47.377,37.902C-31.703,37.902 -18.951,50.654 -18.951,66.328L-18.953,92.241C-18.953,102.708 -10.466,107.393 0,107.393" style="fill:rgb(56,56,56);fill-rule:nonzero;"/>
                            <clipPath id="_clip7">
                                <path d="M0,107.393C10.466,107.393 18.951,98.909 18.951,88.442L18.951,66.328C18.951,29.755 -10.804,0 -47.377,0L-77.789,0C-88.255,0 -96.74,8.485 -96.74,18.951C-96.74,29.417 -88.255,37.902 -77.789,37.902L-47.377,37.902C-31.703,37.902 -18.951,50.654 -18.951,66.328L-18.953,92.241C-18.953,102.708 -10.466,107.393 0,107.393" clip-rule="nonzero"/>
                            </clipPath>
                            <g clip-path="url(#_clip7)">
                                <g transform="matrix(0.321807,0,0,0.375,-3427.44,-1678.49)">
                                    <path d="M10585.3,4475.97C10586.8,4477.58 10585.3,4507.98 10570.4,4522.05C10563.5,4528.59 10565.5,4540.98 10569.8,4547.2C10584.3,4568.4 10633.8,4536.51 10638.2,4506.89C10623.8,4493.91 10606.4,4483.18 10585.3,4475.97Z" style="fill:rgb(255,169,73);"/>
                                </g>
                                <g transform="matrix(0.303803,0.106128,-0.123671,0.354021,-2660.27,-2693.33)">
                                    <path d="M10585.3,4475.97C10586.8,4477.58 10585.3,4507.98 10570.4,4522.05C10563.5,4528.59 10565.5,4540.98 10569.8,4547.2C10584.3,4568.4 10633.8,4536.51 10638.2,4506.89C10623.8,4493.91 10606.4,4483.18 10585.3,4475.97Z" style="fill:rgb(255,169,73);"/>
                                </g>
                                <g transform="matrix(0.283167,0.152893,-0.178165,0.329973,-2181.86,-3060.25)">
                                    <path d="M10585.3,4475.97C10586.8,4477.58 10585.3,4507.98 10570.4,4522.05C10563.5,4528.59 10565.5,4540.98 10569.8,4547.2C10584.3,4568.4 10633.8,4536.51 10638.2,4506.89C10623.8,4493.91 10606.4,4483.18 10585.3,4475.97Z" style="fill:rgb(255,169,73);"/>
                                </g>
                            </g>
                        </g>
                    </g>
                </g>
            </g>
        </g>
    </g>
</svg>
