<svg width="274" height="102" viewBox="0 0 274 102" fill="none" xmlns="http://www.w3.org/2000/svg">
<path fill-rule="evenodd" clip-rule="evenodd" d="M175.872 88.0029C175.872 88.0029 231.267 88.0827 249.898 88.0029C254.861 88.0029 263.034 88.2421 263.034 80.9531C263.034 73.6642 256.251 72.1836 247.49 72.1836H197.646L175.872 88.0029Z" fill="#383838"/>
<path fill-rule="evenodd" clip-rule="evenodd" d="M229.3 70.9422C232.058 76.5 232.217 85.2696 232.217 85.2696L264.119 85.2126L257.755 92.4902L224.97 89.176L223.478 73.0264C223.478 73.0264 226.53 65.3274 229.323 70.9422" fill="#282828"/>
<path d="M258.456 86.0554H230.385C230.319 80.6045 229.454 75.1932 227.819 69.9969C227.315 67.777 226.411 65.6693 225.151 63.7785C222.813 59.347 219.504 55.5105 215.474 52.5603C219.472 49.8375 222.745 46.1673 225.006 41.872C227.267 37.5766 228.447 32.7877 228.441 27.9259C228.44 24.3385 227.674 20.7931 226.196 17.5295C224.718 14.2658 222.561 11.3601 219.872 9.00871L211.404 1.57169C210.128 0.457103 208.465 -0.101269 206.781 0.0194064C205.096 0.140082 203.529 0.929921 202.422 2.21517C201.316 3.50041 200.762 5.17578 200.881 6.87272C201.001 8.56966 201.785 10.1492 203.061 11.2637L211.506 18.6438C212.818 19.7897 213.871 21.2065 214.593 22.7981C215.315 24.3898 215.688 26.1191 215.689 27.8689C215.686 32.3585 213.913 36.6632 210.761 39.8367C207.609 43.0103 203.335 44.793 198.878 44.793H179.309C178.987 44.7966 178.666 44.8232 178.348 44.8727C177.726 44.8727 177.105 44.8727 176.472 44.8727H85.7034C80.7799 44.8639 75.9395 46.151 71.6616 48.6066C67.3838 51.0621 63.8169 54.6009 61.3142 58.8724C58.8115 63.1439 57.4599 68 57.3933 72.9597C57.3266 77.9193 58.5472 82.8105 60.9341 87.1487C57.016 87.6982 53.065 87.976 49.109 87.9801C31.021 87.9801 18.5855 88.6863 15.3975 88.6863C12.2094 88.6863 2.84887 90.406 2.84887 94.8705C2.84887 100.804 9.63189 102 21.1178 102H92.4978C93.2759 101.996 94.0533 101.951 94.8266 101.863H131.24H131.805H186.838C186.838 101.863 242.233 101.943 260.864 101.863C265.826 101.863 274 102.103 274 94.8135C274 87.5246 267.24 86.0554 258.456 86.0554Z" fill="#383838"/>
<path fill-rule="evenodd" clip-rule="evenodd" d="M74.6132 85.3493L78.4682 83.7093L78.9995 83.6182L79.9153 83.2309C80.537 83.0601 81.1588 82.9348 81.7919 82.8209C84.6295 78.9031 86.7548 72.9467 86.7548 64.5985C86.7548 47.2075 78.3552 43.096 75.088 43.096C71.8209 43.096 66.8466 42.743 63.116 45.9889C59.3853 49.2347 56.333 81.3517 61.5559 86.2148C62.2564 86.9354 63.0513 87.5562 63.9186 88.0599C65.8181 87.2175 67.7895 86.5505 69.8086 86.0668L74.6132 85.3493Z" fill="#82D357"/>
<path fill-rule="evenodd" clip-rule="evenodd" d="M70.8373 45.3624H70.713C67.1971 35.4426 54.0833 24.9875 50.6239 26.935C47.7411 28.575 46.735 35.2148 46.3393 40.1007C42.3537 40.6296 38.4746 41.7824 34.8421 43.5174C29.7474 45.8808 25.2344 49.35 21.6265 53.6764C17.1723 52.2983 11.452 51.1481 10.4232 53.3689C9.58667 55.2025 11.4859 62.2979 13.6452 67.776H12.5147C9.32665 67.7646 0 69.473 0 73.9489C0 79.5409 6.03689 80.9189 16.3019 81.067C16.4036 81.2948 16.4827 81.5112 16.5845 81.7389C22.8249 95.178 41.1164 99.8589 57.4183 92.1827C60.6338 90.6784 63.6309 88.7396 66.3266 86.4198C67.4823 86.5986 68.6551 86.6369 69.8199 86.5337C76.7159 85.9529 80.7858 81.2834 80.5483 66.2613C80.3222 51.0342 74.975 45.408 70.8373 45.3624Z" fill="#383838"/>
<path fill-rule="evenodd" clip-rule="evenodd" d="M30.8853 65.5779C30.38 65.5779 29.8861 65.7289 29.4659 66.0117C29.0457 66.2946 28.7183 66.6965 28.5249 67.1669C28.3315 67.6372 28.2809 68.1547 28.3795 68.654C28.4781 69.1533 28.7214 69.6119 29.0787 69.9719C29.436 70.3319 29.8913 70.577 30.3869 70.6763C30.8825 70.7756 31.3962 70.7247 31.8631 70.5298C32.3299 70.335 32.729 70.0051 33.0097 69.5818C33.2904 69.1586 33.4403 68.6609 33.4403 68.1519C33.4403 67.4692 33.1711 66.8145 32.692 66.3318C32.2128 65.8491 31.563 65.5779 30.8853 65.5779Z" fill="#F4EEE1"/>
<path fill-rule="evenodd" clip-rule="evenodd" d="M52.8284 53.8586C52.3208 53.8586 51.8247 54.0103 51.4027 54.2943C50.9807 54.5784 50.6517 54.9822 50.4575 55.4546C50.2633 55.927 50.2125 56.4468 50.3115 56.9483C50.4105 57.4498 50.6549 57.9105 51.0138 58.272C51.3727 58.6336 51.83 58.8798 52.3278 58.9796C52.8256 59.0793 53.3415 59.0281 53.8105 58.8325C54.2794 58.6368 54.6802 58.3054 54.9622 57.8803C55.2441 57.4551 55.3946 56.9553 55.3946 56.4439C55.3947 55.7603 55.1258 55.1044 54.647 54.6199C54.1682 54.1354 53.5184 53.8617 52.8397 53.8586" fill="#F4EEE1"/>
<path fill-rule="evenodd" clip-rule="evenodd" d="M49.403 63.4938C49.7647 62.3549 44.621 61.1249 44.621 61.1249C44.621 61.1249 46.6559 55.829 45.4236 55.829C44.1914 55.829 41.2068 60.1226 41.2068 60.1226C41.2068 60.1226 35.0795 59.8379 34.6725 61.2615C34.2655 62.6852 39.692 63.3002 39.692 63.3002C39.692 63.3002 37.6231 68.5961 38.5615 68.8352C39.4998 69.0744 42.7104 64.0632 42.7104 64.0632C42.7104 64.0632 48.9169 64.9857 49.3917 63.5507" fill="#F4EEE1"/>
<path fill-rule="evenodd" clip-rule="evenodd" d="M86.2574 79.8712C86.2964 79.8153 86.3269 79.7539 86.3478 79.689C74.669 85.1117 61.9686 87.9395 49.1091 87.9802C33.9151 87.9802 22.7118 88.4813 17.6245 88.6407C20.4992 89.8551 23.557 90.5714 26.6686 90.7591C38.6745 91.2146 79.8813 90.4971 86.2574 79.8712Z" fill="#282828"/>
</svg>
