<svg width="904" height="1080" viewBox="0 0 904 1080" fill="none" xmlns="http://www.w3.org/2000/svg">
<path d="M141.377 2071.61L211.496 1866.6C171.846 1852.5 134.481 1832.66 100.611 1807.73C85.6557 1798.51 72.5191 1786.64 61.8551 1772.71C35.3263 1744.57 15.5704 1710.81 4.08796 1674.01C-25.7875 1696.41 -60.7727 1711.15 -97.7945 1716.93C-134.816 1722.71 -172.742 1719.36 -208.239 1707.17C-234.441 1698.2 -258.425 1683.76 -278.57 1664.8C-298.716 1645.85 -314.552 1622.84 -325.009 1597.33L-358.18 1516.91C-363.134 1504.8 -363.059 1491.26 -357.969 1479.26C-352.88 1467.26 -343.195 1457.78 -331.043 1452.91C-318.892 1448.04 -305.27 1448.18 -293.174 1453.3C-281.079 1458.41 -271.5 1468.08 -266.546 1480.18L-233.735 1560.3C-228.644 1572.75 -220.926 1583.98 -211.103 1593.23C-201.28 1602.47 -189.581 1609.52 -176.801 1613.89C-144 1625.09 -108.13 1622.9 -77.0755 1607.8C-46.0207 1592.71 -22.3227 1565.95 -11.1905 1533.4L37.6926 1390.48C38.5225 1388.14 39.5193 1385.86 40.6753 1383.66C42.2285 1379.12 43.7817 1374.58 45.3631 1369.95L272.1 707.029C284.335 671.048 305.828 638.912 334.449 613.803C363.071 588.694 397.83 571.484 435.282 563.877C472.734 556.27 511.58 558.531 547.973 570.434C584.366 582.338 617.044 603.472 642.769 631.743C656.57 604.499 668.468 576.337 678.38 547.455C723.564 415.35 759.785 326.291 767.749 303.007C775.713 279.724 811.657 215.655 844.267 226.809C887.608 241.632 879.399 294.16 850.707 378.047L672.401 899.37C670.429 905.043 668.154 910.607 665.585 916.037L574.625 1181.98L573.213 1186.11L435.742 1588.04C435.742 1588.04 297.949 1992.82 250.827 2128.69C238.43 2164.93 219.76 2225.23 166.519 2207.02C113.279 2188.81 119.435 2135.76 141.377 2071.61Z" fill="#383838"/>
<path fill-rule="evenodd" clip-rule="evenodd" d="M595.455 727.152L573.846 751.21L571.853 754.863L566.738 760.583C563.937 764.698 561.468 768.926 559.055 773.265C523.35 784.202 474.533 784.843 413.556 763.988C286.528 720.54 277.479 648.922 285.64 625.061C293.802 601.199 303.648 563.988 336.676 544.85C369.704 525.712 611.92 583.656 634.394 633.951C637.908 640.867 640.456 648.223 641.969 655.816C631.071 667.585 621.274 680.316 612.698 693.854L595.455 727.152Z" fill="#82D357"/>
<path fill-rule="evenodd" clip-rule="evenodd" d="M312.813 599.678L313.123 598.77C249.449 548.309 205.84 426.413 228.707 406.013C247.887 389.056 298.899 398.296 335.575 407.612C349.395 379.825 367.505 354.373 389.252 332.178C419.241 300.873 455.854 276.58 496.468 261.038C497.529 225.064 503.416 180.412 522.207 178.447C537.691 176.918 584.773 208.515 619.392 237.97L622.216 229.714C630.097 206.402 665.873 142.553 698.566 153.734C739.411 167.705 734.397 215.238 709.837 290.578C711.246 291.89 712.629 293.008 714.039 294.321C796.613 373.471 785.111 518.757 688.32 618.64C669.301 638.367 647.653 655.413 623.974 669.306C622.393 678.193 619.743 686.854 616.08 695.103C594.611 744.017 550.338 762.076 441.205 722.813C330.547 683.12 302.81 630.011 312.813 599.678Z" fill="#383838"/>
<path fill-rule="evenodd" clip-rule="evenodd" d="M560.271 358.393C561.534 354.702 563.87 351.472 566.986 349.11C570.101 346.747 573.855 345.36 577.774 345.123C581.692 344.885 585.599 345.809 588.999 347.776C592.4 349.743 595.142 352.666 596.879 356.175C598.616 359.684 599.269 363.622 598.756 367.489C598.244 371.357 596.588 374.982 593.999 377.905C591.41 380.828 588.003 382.918 584.21 383.911C580.417 384.904 576.408 384.755 572.69 383.483C567.704 381.778 563.594 378.176 561.265 373.471C558.936 368.765 558.579 363.342 560.271 358.393Z" fill="#F4EEE1"/>
<path fill-rule="evenodd" clip-rule="evenodd" d="M419.857 489.376C421.125 485.669 423.472 482.424 426.601 480.052C429.73 477.679 433.501 476.285 437.437 476.047C441.373 475.809 445.297 476.736 448.712 478.712C452.128 480.688 454.882 483.624 456.627 487.149C458.371 490.673 459.027 494.628 458.513 498.513C457.998 502.398 456.335 506.038 453.734 508.974C451.134 511.91 447.712 514.009 443.902 515.007C440.092 516.004 436.066 515.855 432.331 514.577C427.337 512.869 423.218 509.267 420.875 504.56C418.532 499.852 418.156 494.422 419.829 489.458" fill="#F4EEE1"/>
<path fill-rule="evenodd" clip-rule="evenodd" d="M498.791 488.429C489.569 488.226 493.434 447.585 493.434 447.585C493.434 447.585 449.668 449.217 452.746 440.217C455.824 431.218 494.641 420.147 494.641 420.147C494.641 420.147 507.868 374.685 519.283 375.269C530.698 375.853 521.635 417.021 521.635 417.021C521.635 417.021 565.486 415.142 564.889 422.592C564.292 430.043 519.669 440.973 519.669 440.973C519.669 440.973 510.903 488.606 499.236 488.489" fill="#F4EEE1"/>
<path fill-rule="evenodd" clip-rule="evenodd" d="M526.355 798.51C525.849 798.655 525.324 798.724 524.798 798.715C593.581 726.966 645.96 641.273 678.381 547.455C716.335 436.487 747.981 355.915 761.853 319.159C763.543 343.188 761.136 367.309 754.735 390.504C728.071 479.327 619.896 778.488 526.355 798.51Z" fill="#282828"/>
</svg>
