<svg width="1605" height="1080" viewBox="0 0 1605 1080" fill="none" xmlns="http://www.w3.org/2000/svg">
<path fill-rule="evenodd" clip-rule="evenodd" d="M654.856 965.025C641.75 950.326 631.414 933.295 624.392 914.831C604.847 924.478 591.734 931.215 585.21 934.168C569.774 941.153 521.207 970.815 532.06 994.798C544.981 1023.35 578.506 1015.97 613.789 1000.01L665.977 976.388C662.115 972.747 658.437 969.023 654.856 965.025Z" fill="#393A35"/>
<path d="M1154.47 -614.082C1134.34 -611.619 1113.35 -593.408 1083.05 -571.093C1027.66 -530.321 944.869 -542.041 873.093 -530.886C825.989 -523.672 774.791 -519.88 739.127 -508.67C683.336 -491.792 627.886 -464.863 573.4 -440.205C572.503 -440.009 571.659 -439.627 570.92 -439.082C461.406 -384.362 347.675 -289.55 312.79 -186.849C293.148 -129.229 278.079 -63.7033 283.059 -7.93805C288.301 61.9032 308.916 130.038 343.356 191.344C390.041 281.782 479.037 391.598 581.993 429.281C756.794 493.385 1003.41 395.994 1050.44 373.449C1133.98 333.238 1171.59 364.489 1200.49 393.375C1255.54 448.725 1243.25 563.212 1131.49 611.497L914.747 709.587C878.925 725.799 851.242 756.085 837.785 793.784C824.329 831.484 826.203 873.508 842.994 910.611C859.786 947.715 890.12 976.859 927.323 991.632C964.526 1006.41 1005.55 1005.6 1041.37 989.386L1258.12 891.296C1495.54 783.85 1604.22 549.947 1517.69 309.334C1493.64 245.949 1457.01 188.079 1410.15 139.458C1361.78 91.2891 1277.95 57.2197 1233.47 44.5547C1160.08 23.7637 1075.58 27.6045 974.34 63.9063C901.467 90.0058 772.957 145.068 705.278 113.665C688.961 106.564 674.234 95.9957 662.095 82.6761C649.955 69.3564 640.687 53.5966 634.917 36.4644C612.679 -24.9054 646.841 -98.3843 679.852 -123.529C701.517 -139.379 724.338 -153.54 748.131 -165.895C802.524 -190.511 1011.09 -284.9 1088.09 -319.745C1111.79 -330.473 1151.36 -347.003 1135.17 -382.787C1118.97 -418.571 1083.36 -411.167 1041.46 -392.206L912.275 -333.743C906.005 -346.8 898.945 -359.459 891.137 -371.646C888.783 -381.566 885.478 -391.247 881.268 -400.546C872.158 -421.395 858.189 -439.738 840.616 -453.927C845.394 -456.089 850.235 -457.134 855.86 -458.647C884.394 -466.286 916.202 -463.023 951.057 -463.547C989.149 -465.551 1026.72 -472.424 1062.9 -484.007C1127.63 -502.41 1153.7 -524.067 1171.54 -543.837C1187.29 -561.396 1199.07 -576.703 1190.42 -598.246C1185.76 -610.011 1176.71 -616.807 1154.47 -614.082Z" fill="#393A35"/>
<path fill-rule="evenodd" clip-rule="evenodd" d="M864.68 748.412C832.148 700.988 732.635 672.87 719.504 691.31C706.374 709.75 727.042 763.002 735.389 783.647C743.736 804.293 897.487 795.711 864.459 748.168" fill="#393A35"/>
<path fill-rule="evenodd" clip-rule="evenodd" d="M922.895 962.167C925.43 959.745 928.095 957.467 930.877 955.344C943.654 945.663 956.253 935.833 968.146 925.177C975.212 915.827 983.201 907.256 991.992 899.594C997.344 874.24 994.38 839.806 975.343 797.741C936.581 712.089 887.562 710.423 871.942 717.492C856.323 724.56 831.799 733.48 821.21 757.535C810.621 781.591 867.611 945.678 903.088 958.517C909.376 961.244 916.147 962.492 922.895 962.167Z" fill="#82D357"/>
<path fill-rule="evenodd" clip-rule="evenodd" d="M898.996 769.69C839.379 717.21 741.583 733.49 680.988 806.778C661.952 829.421 648.15 856.223 640.569 885.267C616.287 888.115 586.23 894.837 586.363 907.849C586.495 920.861 619.164 959.049 643.562 980.916C650.54 1001.3 662.628 1019.57 678.592 1033.86C738.116 1086.38 835.918 1069.87 896.685 996.962C957.453 924.056 958.52 822.212 898.996 769.69Z" fill="#393A35"/>
<path fill-rule="evenodd" clip-rule="evenodd" d="M711.122 923.508C708.705 924.602 706.678 926.414 705.298 928.714C703.918 931.014 703.246 933.7 703.368 936.431C703.49 939.163 704.399 941.817 705.982 944.059C707.565 946.301 709.749 948.03 712.259 949.027C714.77 950.023 717.493 950.244 720.084 949.659C722.676 949.075 725.019 947.712 726.819 945.744C728.618 943.775 729.792 941.289 730.193 938.6C730.594 935.911 730.203 933.139 729.07 930.636C728.328 928.964 727.273 927.452 725.966 926.187C724.659 924.921 723.125 923.928 721.455 923.265C719.785 922.601 718.011 922.281 716.237 922.323C714.463 922.365 712.724 922.768 711.122 923.508Z" fill="#FCFCFC"/>
<path fill-rule="evenodd" clip-rule="evenodd" d="M789.76 818.667C787.343 819.761 785.317 821.572 783.936 823.873C782.556 826.173 781.885 828.859 782.006 831.59C782.128 834.321 783.038 836.976 784.621 839.218C786.203 841.46 788.388 843.188 790.898 844.185C793.408 845.182 796.131 845.402 798.723 844.818C801.314 844.233 803.658 842.871 805.457 840.902C807.257 838.934 808.431 836.448 808.832 833.758C809.232 831.069 808.842 828.298 807.709 825.794C806.169 822.456 803.423 819.837 800.065 818.503C796.706 817.17 793.005 817.228 789.76 818.667Z" fill="#FCFCFC"/>
<path fill-rule="evenodd" clip-rule="evenodd" d="M794.86 873.228C794.145 867.245 766.77 872.066 766.77 872.066C766.77 872.066 764.708 841.582 758.828 844.243C752.947 846.905 748.267 874.477 748.267 874.477C748.267 874.477 718.311 886.314 719.489 893.808C720.666 901.301 747.943 893.085 747.943 893.085C747.943 893.085 749.87 923.515 754.889 922.62C759.908 921.724 764.048 890.268 764.048 890.268C764.048 890.268 795.793 881.405 794.86 873.228Z" fill="#FCFCFC"/>
<path fill-rule="evenodd" clip-rule="evenodd" d="M1024.45 850.736C978.427 913.041 917.731 962.294 847.787 994.095C761.695 1033.06 703.842 1063.48 688.498 1070.43C673.154 1077.37 632.425 1106.01 642.331 1127.9C655.51 1157.02 690.571 1148.14 745.332 1123.36L1086.03 969.179C1133.9 947.515 1145.45 904.793 1119.1 862.481C1106.01 840.887 1054.79 807.197 1024.24 850.26" fill="#393A35"/>
<path fill-rule="evenodd" clip-rule="evenodd" d="M993.848 888.78C955.758 931.603 909.427 965.906 857.618 989.646C789.075 1020.67 739.293 1046.18 716.943 1057.21C732.464 1057.36 747.811 1054.65 762.249 1049.2C817.492 1026.95 987.423 953.834 993.848 888.78Z" fill="#2D2926"/>
</svg>
