<svg width="40" height="40" viewBox="0 0 40 40" fill="none" xmlns="http://www.w3.org/2000/svg">
<path d="M26.4733 25.5266C26.5995 25.6518 26.6705 25.8222 26.6705 26C26.6705 26.1777 26.5995 26.3481 26.4733 26.4733C26.3482 26.5995 26.1778 26.6705 26 26.6705C25.8222 26.6705 25.6518 26.5995 25.5267 26.4733L20 20.94L14.4733 26.4733C14.3482 26.5995 14.1778 26.6705 14 26.6705C13.8222 26.6705 13.6518 26.5995 13.5267 26.4733C13.4005 26.3481 13.3295 26.1777 13.3295 26C13.3295 25.8222 13.4005 25.6518 13.5267 25.5266L19.06 20L13.5267 14.4733C13.3576 14.3042 13.2915 14.0577 13.3534 13.8267C13.4153 13.5957 13.5957 13.4153 13.8267 13.3534C14.0578 13.2915 14.3042 13.3575 14.4733 13.5266L20 19.06L25.5267 13.5266C25.7881 13.2652 26.2119 13.2652 26.4733 13.5266C26.7347 13.7881 26.7347 14.2119 26.4733 14.4733L20.94 20L26.4733 25.5266Z" fill="#383838"/>
</svg>
